<?xml version="1.0" encoding="UTF-8"?>
<svg id="Laag_1" data-name="Laag 1" xmlns="http://www.w3.org/2000/svg" width="789.06" height="771.29" viewBox="0 0 789.06 771.29">
  <g>
    <path d="m53.91,72.51c3.8,4.27,5.87,11.74,7.46,17.11,3.54,11.97,4.56,24.53,5.29,36.93,7.23,123.61-7.42,247.6-2.95,371.35.41,11.37-.69,25.54-11.2,29.91,4.26-1.77,11.04,17.47,11.66,19.98,2.14,8.71,1.41,17.78,1.41,26.69,0,21.49.18,42.98.54,64.47.35,20.75.86,41.5,1.54,62.24.36,10.87.76,21.73,1.21,32.59.39,9.51,2.49,20.69,1.01,29.99-2.42-4.73-.03-15.49.26-21.25.37-7.37.72-14.74,1.07-22.11.71-15.23,1.36-30.46,1.88-45.7.68-19.82,1.14-39.64,1.26-59.47.12-19.32-1.41-39.06-.38-58.3.51-9.52,4.46-19.94,13.24-23.64-4.16-3.64-8.43-7.42-10.9-12.36-.88-1.77-1.52-3.65-2-5.57-2.5-10.03-.54-21.09,5.26-29.64,5.8-8.56,15.34-14.48,25.58-15.88,4.22-.58,8.94-.26,12.08,2.62,4.38,4.01,3.47,11.91-1.14,15.66,4.77,2.17,10.76-.01,13.93-4.18,3.17-4.17,3.85-9.82,2.95-14.98-.25-1.45-.64-2.93-1.54-4.1-1.31-1.71-3.46-2.5-5.53-3.09-17.89-5.08-33.1.35-48.58,8.92-2.86-3.42-1.2-15.03-1.31-19.68-.18-7.53-.32-15.07-.42-22.6-.2-15.07-.25-30.14-.13-45.21.22-30.14,1.08-60.27,2.56-90.38.24-4.81.52-9.75,2.51-14.13,2.36-5.18,6.85-9.05,11.39-12.49,12.94-9.82,27.69-17.78,43.71-20.46,16.03-2.67,33.46.44,46.07,10.69,13.02,10.59,19.6,27.79,19.64,44.57.04,16.78-5.88,33.14-14.3,47.65-2.17,3.74-4.64,7.52-8.33,9.77-3.85,2.35-8.53,2.75-13.03,3.1-9.93.76-20.17,1.5-29.64-1.58s-18.11-10.95-18.94-20.88c-.98-11.7,9.44-22.03,20.9-24.54,5.05-1.11,10.66-.95,14.98,1.88,4.25,2.78,6.56,8.45,4.5,13.25,5.46-5.97-2.68-18.07-7.61-21.65-6.28-4.56-14.65-5.73-22.23-4.05-3.7.82-7.3,2.3-10.31,4.6-6.14,4.68-9.37,12.46-9.89,20.17s1.4,15.37,4.01,22.64c2.3,6.41,5.24,12.76,9.99,17.64,5.4,5.55,12.83,8.82,20.44,10.27s15.44,1.19,23.15.51c16.16-1.42,33.38-5.36,44.14-17.51,5.44-6.13,8.74-13.88,11.05-21.74,5.7-19.44,5.76-40.5.16-59.97-1.25-4.34-2.78-8.61-4.85-12.62-6.78-13.07-20.64-25.03-33.52-31.88-13.61-7.25-29.39-10.52-44.75-8.86-12.39,1.34-24.38,5.87-34.71,12.81-3.95,2.65-25.58,25.57-26.5,24.76-1.17-1.04-1.29-2.8-1.32-4.37-.8-40.29-.26-80.61,1.62-120.87.61-13.12,1.35-26.47-1.75-39.23s-10.67-25.13-22.58-30.69c.39.56.77,1.12,1.14,1.69" style="stroke-width: 0px;"/>
    <path d="m52.85,73.57c3.86,4.6,5.44,10.79,7.07,16.45,2.12,7.32,3.38,14.82,4.16,22.39,1.58,15.4,2.03,30.96,2.49,46.43.94,31.16.72,62.34,0,93.49-1.46,62.61-4.97,125.17-5.21,187.8-.07,17.42.12,34.85.67,52.26.35,11.14,2.14,28.54-10.27,34.11-1.56.7-.45,3.23,1.16,2.74,2.21-.67,5.62,7.9,6.25,9.34,1.36,3.09,2.69,6.31,3.56,9.59,2.15,8.09,1.42,16.75,1.36,25.02-.06,9.11.02,18.23.09,27.34.24,35.37.97,70.73,2.18,106.08.34,9.82.53,19.67,1.15,29.47.57,9.06,2.23,18.21.94,27.28l2.74-.36c-2.25-5.03-.4-12.01.18-17.25.82-7.48.87-15.08,1.22-22.59.77-16.38,1.47-32.77,2.03-49.16s.96-32.73,1.15-49.09c.19-16.14-.45-32.25-.63-48.38-.15-13.63-2.36-35.03,12.83-41.94.85-.39.98-1.76.3-2.36-3.35-2.94-6.81-5.93-9.28-9.68-2.6-3.96-3.82-8.73-4.14-13.42-.64-9.27,2.32-18.68,8.4-25.74,5.4-6.27,13.08-10.61,21.26-11.94,4.45-.73,10.51-.66,13.06,3.81,2.24,3.93.66,8.95-2.53,11.8-.92.82-.31,2.13.66,2.51,7.21,2.83,14.83-1.67,17.65-8.49,2.53-6.11,2.78-16.46-4.13-19.71-7.75-3.65-17.84-3.69-26.11-2.27-9.43,1.62-18.21,5.71-26.54,10.28l2.05.54c-1.69-2.34-1.51-5.86-1.48-8.62.03-3.04.32-6.07.37-9.11.17-9.28-.36-18.62-.47-27.9-.23-19.86-.18-39.73.13-59.59.32-19.86.91-39.72,1.77-59.57.4-9.16-.78-20.68,4.53-28.65,4.87-7.31,13.63-12.59,21.01-17.05,14.67-8.87,31.58-14.58,48.88-12.75s32.3,11.45,40.14,27.07c7.77,15.48,7.76,33.4,2.94,49.76-2.61,8.86-6.5,17.4-11.26,25.31-2.44,4.06-5.3,7.88-9.91,9.57-4.2,1.54-8.92,1.59-13.34,1.9-9.92.68-20.68,1.06-29.78-3.58-8.07-4.12-15.05-12.45-13.39-22.04,1.47-8.53,8.84-15.25,16.79-17.93,4.44-1.5,9.61-2.05,14.08-.38,5.29,1.98,8.4,7.43,6.39,12.87-.51,1.37,1.57,2.61,2.51,1.46,5.3-6.48.07-15.68-4.61-20.95-6.91-7.78-18.67-9.54-28.34-6.83-10.74,3-17.67,11.9-19.31,22.77-1.81,12,2.27,25.3,7.95,35.81,12.26,22.71,40.64,22.23,62.87,18.18,10.56-1.92,21.18-5.56,29.4-12.68,9.12-7.9,13.7-19.51,16.47-30.97,3.16-13.05,3.88-26.68,2.13-40-1.6-12.14-4.85-24.65-11.91-34.82-13.59-19.56-36.5-33.03-60.13-35.52-20.21-2.13-42.36,4-57.14,18.25-5.4,5.21-10.62,10.6-16.06,15.76-.89.85-1.79,1.7-2.72,2.51-.27.23-.64.67-.97.82-1.42.64-.03-.89.07-2.16.57-7.12-.26-14.62-.32-21.77-.24-29.54.24-59.08,1.43-88.6.98-24.23,4.85-52.62-12.22-72.6-3.44-4.02-7.61-7.29-12.37-9.6-1.23-.6-2.98.71-2.05,2.05.39.56.77,1.12,1.14,1.69,1.06,1.6,3.66.1,2.59-1.51-.37-.57-.75-1.13-1.14-1.69l-2.05,2.05c22.59,10.98,24.77,38.7,23.94,60.73-1.01,26.67-2.09,53.3-2.28,79.99-.09,13.28-.04,26.56.16,39.84.04,2.58-1.17,18.73,5.25,13.66,8.94-7.06,15.65-16.8,24.74-23.65,19.18-14.46,46.48-16.53,68.55-8.44s40.85,25.41,47.33,47.91c3.47,12.05,4.73,24.68,3.82,37.18-.88,12.13-3.57,25.03-9.53,35.74-11.35,20.41-37.12,24.81-58.52,24.93-12.01.07-25.14-2.61-33.35-12.13-3.92-4.55-6.44-10.11-8.45-15.72-2.2-6.11-3.93-12.5-4.03-19.04-.19-12.27,6.2-23.41,18.63-26.39,10.64-2.56,21.58.98,27.33,10.45,2.12,3.48,4.62,8.92,1.6,12.61l2.51,1.46c2.67-7.23-2.03-14.44-9.01-16.73-7.8-2.55-16.96.11-23.41,4.79-6.11,4.43-10.8,11.28-10.97,19.02s4.37,14.67,10.4,19.23c7.45,5.63,16.84,7.27,25.99,7.34,5.33.04,10.7-.35,16-.85,4.15-.4,8.42-1.07,11.97-3.41s6.01-5.92,8.15-9.54c2.7-4.57,5.1-9.33,7.18-14.22,3.86-9.09,6.55-18.68,7.35-28.54,1.43-17.58-3.82-36.35-16.65-48.9-13.1-12.81-32.47-16.8-50.16-14.01-9.69,1.53-19,5.06-27.63,9.68s-17.15,9.97-23.8,16.84c-7.16,7.39-7.57,16.45-8.03,26.19-.56,11.86-1.02,23.72-1.39,35.59-.72,23.28-1.06,46.57-1.03,69.86.02,11.56.12,23.11.33,34.67.09,5.15.4,10.34.27,15.49-.09,3.52-.44,7.04-.35,10.56.07,2.77.2,6.02,1.89,8.35.48.67,1.28.96,2.05.54,12.39-6.8,25.89-12.18,40.28-10.26,3.35.45,8.76.99,11.29,3.41s2.45,7.71,1.96,10.96c-1.09,7.17-7.56,13.55-15.12,10.58l.66,2.51c6.55-5.83,5.78-17.23-3.11-20.25-9.39-3.18-21.13,2.04-28.32,7.9-8.5,6.93-13.52,17.37-13.94,28.3-.22,5.6.72,11.52,3.24,16.57,2.55,5.1,6.92,8.97,11.13,12.67l.3-2.36c-11.72,5.33-13.86,18.83-14.21,30.31-.53,17.19.64,34.38.61,51.57-.06,35.06-1.46,70.12-3.08,105.13-.41,8.88-.45,17.9-1.42,26.74-.66,6.01-2.34,13.01.23,18.77.5,1.12,2.56.89,2.74-.36,1.16-8.18.13-16.34-.56-24.51-.78-9.17-.9-18.41-1.23-27.61-.69-19.29-1.23-38.59-1.63-57.89-.4-19.24-.65-38.49-.76-57.74-.05-9.44-.13-18.89.01-28.33.11-7.21.26-14.76-1.84-21.74-1.36-4.5-3.23-8.99-5.41-13.15-1.35-2.57-4.03-7.98-7.79-6.84l1.16,2.74c9.53-4.28,11.66-15.45,11.97-24.88.23-6.91-.3-13.85-.47-20.76-.2-8.02-.32-16.04-.38-24.07-.25-32.57.53-65.13,1.59-97.68,2.12-65.08,5.38-130.18,3.8-195.32-.44-17.97-.86-36.09-2.7-53.99-.82-7.99-2.14-15.9-4.39-23.62-1.77-6.07-3.59-12.41-7.72-17.34-1.24-1.48-3.35.65-2.12,2.12h0Z" style="stroke-width: 0px;"/>
  </g>
  <path d="m34.74,73.96c.45-.26.9-.51,1.36-.74.21-.1.42-.19.62-.29.62-.31-1.02.35.03,0,.98-.34,1.95-.67,2.96-.9.45-.1.9-.18,1.35-.27,1.1-.23-.71.06,0,0,.23-.02.46-.05.69-.07,1.09-.1,2.2-.12,3.29-.08.46.02.93.05,1.39.09.2.02.49.02.69.07-1.01-.28-.29-.04.01.01,1.03.17,2.05.4,3.06.69.95.27,1.87.61,2.79.97-1.05-.42.4.21.66.33.51.26,1.02.53,1.51.82.44.26.88.53,1.3.82.24.17,1.31.98.46.3.79.63,1.55,1.3,2.25,2.03.36.37.69.77,1.03,1.16.47.52-.32-.5.07.08.19.29.4.57.59.86.69,1.05,1.28,2.16,1.81,3.29.12.25.23.51.35.77-.31-.7-.02-.04.03.09.23.59.45,1.18.67,1.78.45,1.27.85,2.55,1.24,3.83.76,2.5,1.51,5.02,2.14,7.56.36,1.47.69,2.96.94,4.45.06.37.12.74.17,1.12-.09-.65,0,.09.03.36.08.74.13,1.48.16,2.22s.03,1.47,0,2.21c-.01.37-.03.73-.06,1.1,0,.1-.13,1.24-.06.71.09-.64-.14.78-.13.7-.07.36-.15.72-.24,1.07-.2.79-.44,1.57-.72,2.33l5.54-3.14c-.81-.32-.15-.07,0,0-.29-.14-.58-.27-.87-.41-.46-.23-.9-.47-1.34-.73-.49-.29-.98-.6-1.45-.92-.21-.14-.42-.29-.63-.44-.17-.12-1.06-.83-.31-.22-1.71-1.38-3.29-2.91-4.78-4.53-3.14-3.41-5.86-7.15-8.9-10.64-3.3-3.79-7.11-7.4-11.62-9.72-1.83-.94-3.76-1.6-5.7-2.23-.71-.23-1.42-.46-2.12-.73-1.17-.45.62.35-.3-.14-.35-.19-.71-.36-1.05-.57-.12-.08-.77-.6-.18-.09s-.02-.03-.14-.14-.24-.25-.36-.37c-.62-.59.44.8.07.08-.08-.15-.18-.32-.27-.47-.45-.74.22.91.03.03-.04-.19-.1-.4-.16-.59-.28-.93-.03.94-.02-.11,0-.23.02-.53,0-.74-.1.53-.11.63-.05.29.03-.18.07-.36.12-.53.06-.23.14-.47.23-.69-.29.73.04.1.21-.24.08-.17.51-.67-.05,0,.2-.24.41-.47.63-.69s.45-.43.7-.63c-.6.49.03.02.31-.16,2-1.24,2.95-4.08,1.61-6.16s-4.01-2.94-6.16-1.61c-5.54,3.43-8.26,10.06-5.31,16.14,1.99,4.09,6.35,5.68,10.38,6.99.84.27,1.66.59,2.49.87.59.2-1.03-.51-.21-.08.24.13.5.24.74.36.67.35,1.33.72,1.96,1.13.52.33,1.03.69,1.53,1.04,1.07.75-.36-.33.24.18.26.22.54.44.8.66,1.06.9,2.06,1.86,3.02,2.85,3.54,3.65,6.5,7.8,9.83,11.63,4.11,4.72,8.8,8.68,14.65,11.02,2.38.95,4.78-1.07,5.54-3.14,2.18-5.99,1.74-12.49.46-18.63-1.19-5.72-2.87-11.55-5.15-16.93s-5.57-9.57-10.32-12.73c-4.29-2.85-9.32-4.37-14.42-4.85-5.58-.52-11.38.68-16.24,3.5-2.04,1.18-2.93,4.12-1.61,6.16s3.98,2.88,6.16,1.61Z" style="stroke-width: 0px;"/>
  <g>
    <path d="m55.74,327.49c2.69-37.32.58-74.47,1.32-111.76.2-10.3.81-20.41,2.52-30.54s.54-20.11.24-30.12c-.03-1.11-.07-2.24-.46-3.28-.54-1.43-1.68-2.53-2.78-3.58-4.92-4.68-9.85-9.35-14.77-14.03-3.87-3.68-7.96-7.48-13.1-8.91-7.73-2.16-16.73,2.3-19.7,9.75-.94,2.37-1.31,5.08-.41,7.47.61,1.61,3.79,5.32,5.96,4.06,1.68-.98.63-2.22.45-3.86-.74-6.42,1.49-10.23,8.51-11.92,5.24-1.26,11-.2,15.45,2.84,5.16,3.52,8.35,9.39,9.87,15.46s1.56,12.38,1.59,18.64c.14,31.48.28,62.96.42,94.43.05,10.12.09,20.26,1.23,30.32,1.23,10.88,3.73,21.68,3.32,32.62" style="stroke-width: 0px;"/>
    <path d="m57.24,327.49c1.27-17.77,1.48-35.6,1.4-53.41-.07-17.79-.4-35.59-.17-53.38.12-8.72.38-17.43,1.31-26.11.47-4.36,1.33-8.67,1.78-13.03s.46-8.58.33-12.88-.43-8.75-.57-13.14c-.06-1.9-.14-3.78-1.14-5.45s-2.59-2.99-4-4.33c-3.18-3.02-6.37-6.04-9.55-9.07-2.9-2.76-5.74-5.65-8.88-8.14-2.81-2.23-5.95-4.19-9.49-4.96-2.95-.64-6.06-.48-8.94.41-5.97,1.83-11.31,6.76-12.51,13.05-.61,3.19-.03,6.18,2.14,8.63,1.72,1.93,4.77,3.77,7.07,1.6,1.12-1.07,1.04-2.4.68-3.79s-.41-2.7-.31-4.06c.16-2.15,1.08-4.1,2.88-5.35,5.59-3.88,13.95-2.76,19.24,1.02,5.96,4.26,8.71,11.7,9.72,18.7.6,4.2.65,8.47.68,12.7.03,4.47.04,8.94.06,13.41.04,8.91.08,17.82.12,26.73.08,17.9.16,35.81.24,53.71.04,8.74.04,17.5.69,26.22.65,8.64,2.3,17.13,3.27,25.73.48,4.23.74,8.48.6,12.74-.07,1.93,2.93,1.93,3,0,.29-8.44-1.09-16.79-2.31-25.11-1.25-8.5-1.92-17-2.11-25.58-.38-17.4-.23-34.82-.3-52.22-.08-17.49-.16-34.98-.23-52.46-.04-7.96.14-16.22-2.49-23.85-2.23-6.47-6.48-12.48-12.91-15.28-5.77-2.52-13.53-2.7-18.88,1.03-1.98,1.38-3.39,3.35-3.94,5.71-.29,1.23-.38,2.52-.34,3.78.03.72.08,1.45.2,2.16.07.44.51,1.33.41,1.75-.22.87-1.71-.26-2.05-.56-.79-.68-1.59-1.59-1.97-2.55-1.24-3.11.31-6.94,2.2-9.46,3.46-4.61,9.81-7.17,15.48-5.88,3.51.8,6.57,2.9,9.28,5.2,3.01,2.57,5.81,5.39,8.68,8.11,3.18,3.02,6.37,6.04,9.55,9.07,1.35,1.28,2.78,2.53,3.07,4.46s.18,4.06.27,6.05c.4,8.53,1,17.12-.4,25.59-1.38,8.38-2.09,16.84-2.39,25.32-.62,17.42-.28,34.89-.14,52.32.14,17.38.2,34.77-.59,52.14-.19,4.23-.44,8.46-.74,12.68-.14,1.93,2.86,1.92,3,0h0Z" style="stroke-width: 0px;"/>
  </g>
  <g>
    <path d="m15.51,145.88l15.47.42c1.43.04,2.86.08,4.25.44,1.76.46,3.35,1.41,4.84,2.46,2.93,2.06,5.6,4.57,7.37,7.68" style="stroke-width: 0px;"/>
    <path d="m15.51,147.38l9.23.25c3.07.08,6.36-.15,9.39.4,2.58.47,4.86,2.09,6.85,3.72s3.82,3.59,5.16,5.88c.97,1.67,3.57.16,2.59-1.51-1.46-2.49-3.4-4.66-5.63-6.48s-4.56-3.52-7.28-4.29c-3.11-.88-6.63-.6-9.83-.68l-10.48-.28c-1.93-.05-1.93,2.95,0,3h0Z" style="stroke-width: 0px;"/>
  </g>
  <path d="m65.99,394.14c-3.48-3.45-6.95-6.91-10.43-10.35-1.74-1.71-3.53-3.34-5.5-4.78s-4.23-2.51-6.54-3.43c-4.51-1.81-9.27-3.42-14.12-3.99s-9.59.54-13.61,3.14-7.56,6.39-9.13,10.99-.09,9.98,2.42,14.12,6.26,7.57,11.14,8.38c2.48.41,4.89.35,7.38.03.77-.1,1.54-.2,2.31-.31.3-.04.59-.08.89-.12-.1.01-.64.07-.07.01,1.29-.13,2.57-.28,3.86-.36,2.6-.16,5.23-.21,7.82.04.94.09.35.05.16.02.37.07.74.14,1.11.23.22.05.44.11.66.17-.03,0,1.18.41.71.22s.31.15.41.21c.31.16.61.33.91.51.48.29.94.6,1.38.93-.62-.46.54.47.72.63.47.42.93.86,1.38,1.3.92.9,1.81,1.83,2.69,2.78,1.81,1.95,3.53,3.98,5.17,6.07,1.46,1.86,4.85,1.65,6.36,0,1.81-1.97,1.56-4.38,0-6.36-2.61-3.31-5.4-6.53-8.47-9.43-3.55-3.35-7.42-5.52-12.29-6.15-4.37-.57-8.91-.27-13.27.3-.69.09-1.39.19-2.08.28-.13.02-.88.11-.14.02-.22.03-.45.06-.67.08-1.04.12-2.07.22-3.12.23-.51,0-1.02-.01-1.54-.04-.04,0-.75-.09-.27-.02s-.22-.05-.26-.06c-.5-.12-.97-.26-1.46-.42s.03,0,.11.04c-.28-.16-.58-.31-.85-.48-.17-.1-.32-.22-.49-.32.07.04.5.45.14.1-.33-.32-.68-.61-1-.95-.14-.14-.27-.29-.4-.44-.08-.09-.61-.74-.28-.31.3.39-.1-.14-.12-.18-.15-.22-.3-.44-.45-.66-.53-.81-.99-1.66-1.41-2.54-.01-.03-.28-.68-.11-.25s-.08-.24-.08-.26c-.17-.54-.33-1.09-.47-1.64-.01-.05-.15-.74-.06-.24.09.54-.02-.32-.03-.45-.02-.42,0-.84.02-1.26.02-.54,0,.07-.01.15.08-.26.12-.54.2-.8.06-.2.14-.39.2-.59.18-.63-.45.79.13-.25.2-.37.4-.73.63-1.08.11-.18.25-.34.35-.52.35-.6-.4.43.06-.09.63-.72,1.26-1.42,1.96-2.07.35-.32.7-.62,1.07-.92-.57.47.17-.11.38-.25.84-.57,1.72-1.02,2.62-1.48.46-.23-.08.04-.16.06.19-.07.37-.14.56-.21.44-.15.89-.29,1.34-.4.39-.1.78-.17,1.17-.24-.78.14-.02,0,.13,0,.31-.01.62-.04.93-.04.54-.01,1.09,0,1.63.05.23.02.47.04.7.06-.2-.02-.73-.13.2.03,1.09.19,2.16.44,3.23.73,2.03.56,4.03,1.25,6.02,1.94.57.2,1.13.4,1.7.61.21.08.42.16.63.24,1.33.51-.37-.18.38.15,1.03.45,2.03.96,2.98,1.56.5.31.98.64,1.45.99-.08-.06-.45-.36-.05-.03.28.23.56.46.84.7.83.72,1.63,1.48,2.41,2.24,3.66,3.58,7.27,7.21,10.9,10.82,1.67,1.66,4.72,1.8,6.36,0s1.79-4.59,0-6.36h0Z" style="stroke-width: 0px;"/>
  <path d="m64.66,433.36c-4.52-4.93-9.45-9.57-15.89-11.81s-13.08-1.2-18.1,3.09-6.6,13.15-3.67,19.17c1.4,2.88,4.21,4.86,7.26,5.66,3.27.85,6.55.44,9.8-.23.9-.18,1.79-.39,2.69-.56.3-.06.6-.11.9-.16-.8.13.9-.08,1.07-.08.7-.03,1.39.02,2.09.07s-1.03-.26.12.03c.37.09.74.16,1.11.26s.72.23,1.09.34c1.15.36-.75-.41.33.13.68.34,1.35.69,1.99,1.12.21.14.42.29.62.44-.83-.61.4.38.54.52.55.53,1.05,1.1,1.52,1.7,1.46,1.86,4.86,1.64,6.36,0,1.82-1.98,1.55-4.37,0-6.36-3.4-4.35-8.79-6.87-14.25-7.21-2.96-.19-5.91.56-8.79,1.15-.3.06-.6.12-.9.18-.18.03-1.15.19-.38.09-.5.07-1.01.1-1.52.11-.3,0-.6,0-.9-.01-.15,0-.93-.04-.3,0,.72.04-.39-.08-.46-.09-.35-.08-.68-.19-1.02-.29s-.53-.38.11.05c-.16-.11-.41-.24-.6-.33-.89-.44.32.42-.04-.02-.09-.11-.64-.6-.23-.18.48.49-.25-.43-.28-.49.09.15.25.83,0-.01-.08-.25-.13-.52-.21-.77-.31-.96-.03.55-.07-.39-.03-.62-.06-1.23-.05-1.85,0-.36.04-.73.06-1.09,0-.16.15-.86,0-.1.12-.64.36-1.26.47-1.89s-.28.47.03-.13c.17-.33.34-.67.55-.99.14-.22.66-.82.04-.11.16-.18.31-.36.48-.54s.36-.33.52-.5c.76-.81-.48.27.08-.09.46-.3.91-.61,1.4-.87.22-.11.44-.21.66-.32-.92.46.11-.02.3-.08,1.88-.61,3.55-.64,5.53-.15.77.19,1.51.47,2.26.72s-.88-.46.32.14c.32.16.65.32.97.49.7.37,1.38.78,2.04,1.22.25.16.49.33.74.51,0,0,1.1.84.51.37,2.45,1.96,4.61,4.24,6.73,6.55,1.6,1.74,4.77,1.74,6.36,0,1.71-1.86,1.7-4.51,0-6.36h0Z" style="stroke-width: 0px;"/>
  <g>
    <path d="m101.05,273.29c11.62-7.83,25.05-12.96,38.93-14.88,9.15-1.26,19.17-.93,26.65,4.49,4.91,3.57,8.19,8.96,10.68,14.5,1.69,3.76,3.1,7.69,3.56,11.78-10.74-5.73-21.49-11.47-32.23-17.2-2.29-1.22-4.59-2.45-7.09-3.14-3.54-.99-7.28-.85-10.94-.57-9.95.77-19.82,2.62-29.38,5.49" style="stroke-width: 0px;"/>
    <path d="m101.81,274.58c10.89-7.3,23.25-12.23,36.19-14.36,5.94-.98,12.17-1.43,18.1-.19s11.17,4.38,14.89,9.32c1.99,2.65,3.57,5.61,4.94,8.62,1.62,3.56,2.97,7.32,3.44,11.21l2.26-1.3c-10.24-5.46-20.47-10.92-30.71-16.38-2.37-1.26-4.72-2.58-7.24-3.54s-5.29-1.35-8.01-1.4c-5.43-.09-10.96.69-16.31,1.53-6.26.98-12.45,2.4-18.53,4.22-1.85.55-1.06,3.45.8,2.89,10.26-3.07,21.02-5.18,31.74-5.6,2.61-.1,5.25-.02,7.79.69s4.85,1.99,7.17,3.22c5.01,2.67,10.02,5.35,15.03,8.02,5.59,2.98,11.18,5.97,16.77,8.95.9.48,2.4-.09,2.26-1.3-.83-6.81-3.7-13.6-7.41-19.35s-8.39-9.69-14.62-11.77-12.54-2.07-18.76-1.35c-6.9.8-13.71,2.4-20.26,4.72-7.42,2.64-14.49,6.18-21.03,10.56-1.6,1.07-.1,3.67,1.51,2.59h0Z" style="stroke-width: 0px;"/>
  </g>
  <g>
    <path d="m112.04,225.47c8.35-5.25,15.58-12.24,21.17-20.35,2.43-3.52,6.1-8.35,6.73-12.67.25-1.71-.22-3.51-.07-5.26.26-2.94,1.14-5.73.79-8.71-.42-3.6-2.4-6.83-4.64-9.68-5.55-7.02-13.03-13.59-22.31-13.66-3.78-.03-7.78,1.17-11.21-.42-2.91-1.36-4.61-4.4-5.93-7.32-.93-2.07-1.78-4.24-1.81-6.5s.94-4.67,2.91-5.79,4.93-.44,5.76,1.67c.76,1.94-.39,4.04-1.14,5.99s-.79,4.71,1.12,5.54c.76.33,1.62.24,2.44.16,8.37-.76,16.94.89,24.43,4.7-1.79-5.06-5.78-9.3-10.72-11.4s-10.76-2.03-15.64.19c-1.68.76-3.42,1.8-5.24,1.48-2.1-.36-3.55-2.55-3.56-4.68s1.13-4.12,2.61-5.65c5.48-5.69,14.62-5.62,22.29-3.71,3.15.78,6.27,1.82,9.03,3.52,8.4,5.15,12.12,15.25,15.17,24.62,1.83,5.63,3.62,11.27,4.94,17.03,1.66,7.25,2.51,15.16-.69,21.87-2.09,4.39-5.71,7.83-9.25,11.17-8.07,7.6-16.5,15.42-27.01,18.96" style="stroke-width: 0px;"/>
    <path d="m112.79,226.76c10.17-6.43,18.12-15.16,24.66-25.18,1.54-2.36,3.04-4.92,3.72-7.68.33-1.35.36-2.69.26-4.07-.12-1.71-.02-3.3.25-4.99.51-3.18.85-6.26-.17-9.39-.93-2.86-2.59-5.37-4.44-7.71-3.35-4.24-7.29-8.2-12.01-10.89-2.43-1.38-5.09-2.43-7.85-2.88-2.98-.5-5.83-.16-8.81.03s-5.65-.2-7.72-2.54c-1.83-2.07-3.12-5.01-3.92-7.63-.72-2.36-.95-6.03,1.66-7.42.8-.43,1.82-.45,2.64-.05,1.29.63,1.21,2.02.85,3.22-.8,2.68-2.44,5.28-1.11,8.12,1.51,3.22,5.31,2.16,8.14,2.11,7.12-.14,14.22,1.47,20.58,4.66,1.06.53,2.69-.37,2.2-1.69-2.04-5.57-6.26-10.16-11.77-12.44-3.11-1.29-6.58-1.82-9.93-1.48-1.54.15-3.06.43-4.54.91-1.64.53-3.11,1.44-4.74,1.98-3.21,1.06-4.82-2.15-3.76-4.88s3.8-4.71,6.42-5.77c5.38-2.17,11.6-1.46,17.06,0,3.21.85,6.33,2.03,9.06,3.96,2.28,1.62,4.2,3.74,5.78,6.03,3.37,4.9,5.39,10.56,7.22,16.16,2.27,6.93,4.58,13.94,5.87,21.13,1.19,6.59,1.23,13.66-2.44,19.51-1.93,3.08-4.58,5.63-7.21,8.11s-5.34,5.03-8.11,7.44c-5.61,4.86-11.76,9.28-18.84,11.71-1.82.62-1.04,3.52.8,2.89,6.71-2.3,12.62-6.21,18.06-10.71,2.73-2.25,5.34-4.64,7.92-7.05s5.16-4.74,7.41-7.41,4.13-5.75,5.13-9.19,1.18-7.02.92-10.54c-.57-7.7-2.94-15.24-5.27-22.56-1.99-6.24-3.95-12.61-7.19-18.33-3.26-5.75-7.87-10.27-14.09-12.7s-12.9-3.51-19.27-2.36c-5.53,1-12.87,5.25-12.59,11.76.13,3,2.33,5.89,5.47,6.06,1.78.09,3.42-.73,4.99-1.46s3.31-1.3,5.08-1.58c6.73-1.06,13.65,1.89,17.52,7.49.89,1.28,1.61,2.66,2.15,4.12l2.2-1.69c-5.79-2.91-12.09-4.63-18.56-5.01-1.47-.09-2.95-.1-4.42-.04-1,.04-3.48.68-4.29-.04-.68-.61-.5-1.96-.31-2.74.35-1.41,1.12-2.67,1.47-4.08.67-2.71-.26-5.42-2.97-6.48-2.29-.9-4.92-.26-6.57,1.56-4.18,4.59-1.33,11.56,1.43,16.12,1.4,2.32,3.29,4.3,5.88,5.25,2.97,1.09,6.19.49,9.25.29,5.87-.38,11.25,1.9,15.73,5.58,2.11,1.74,4.03,3.7,5.8,5.78,1.95,2.28,3.87,4.76,4.93,7.59,1.24,3.28.65,6.39.17,9.75-.42,2.94.34,5.92-.62,8.77-1.06,3.16-3.11,5.97-5.01,8.68s-3.81,5.37-5.99,7.86c-4.56,5.21-9.83,9.75-15.69,13.45-1.63,1.03-.12,3.63,1.51,2.59h0Z" style="stroke-width: 0px;"/>
  </g>
  <g>
    <path d="m222.37,108.06c-6.06,7.1-10.34,16.09-18.29,20.98-3.45,2.12-7.38,3.32-11.26,4.5-5.89,1.78-11.83,3.58-17.95,4.24-4.44.48-9.23.27-12.93-2.22-2.86-1.92-4.76-5-6.08-8.18-2.95-7.12-3.4-15.24-1.24-22.64.63-2.15,1.47-4.32,1.24-6.55-.28-2.64-2.13-4.95-4.44-6.24s-5.05-1.67-7.71-1.55c-1.28.05-2.72.32-3.4,1.4-.47.75-.44,1.7-.35,2.58.27,2.46.94,4.85,1.61,7.22,1.43,5.08,2.85,10.16,4.28,15.24,1.22,4.34,2.47,8.76,4.94,12.54,4.51,6.89,13.1,10.86,21.27,9.84,3.14-.39,6.14-1.45,9.12-2.5,11.06-3.9,22.63-8.13,30.39-16.92,3.21-3.63,5.69-7.96,9.48-10.98-1.97,3.74-3.95,7.49-5.92,11.23-2.76,5.24-5.6,10.58-9.91,14.64-5.47,5.16-12.81,7.78-19.95,10.12-5.23,1.71-10.6,3.37-16.1,3.2-6.96-.21-13.5-3.33-19.42-7.01-10.46-6.5-20.07-15.54-23.65-27.32-.95-3.11-1.45-6.41-.96-9.62.94-6.22,5.87-11.65,11.97-13.17,1.36-.34,2.92-.46,4.03.39,1.42,1.08,1.43,3.3.61,4.88s-2.27,2.73-3.52,4c-2.51,2.55-4.39,5.95-4.27,9.53.14,4.42,3.2,8.17,6.4,11.21,8.81,8.38,19.98,14.25,31.88,16.78" style="stroke-width: 0px;"/>
    <path d="m221.31,107c-5.1,6.02-8.85,13.27-14.88,18.48-3.37,2.91-7.43,4.56-11.64,5.89-4.55,1.43-9.14,2.84-13.8,3.87-4.21.93-8.77,1.73-13.07,1.01s-7.49-3.26-9.57-7.1-3.21-8.23-3.5-12.54c-.31-4.65.5-8.97,1.8-13.41,1.19-4.05.86-8.06-2.41-11.03-3.01-2.73-7.47-3.67-11.44-3.18-1.88.23-3.7,1.13-4.23,3.1s.14,4.4.6,6.33c1.13,4.81,2.63,9.55,3.96,14.3,2.28,8.13,4.14,17.02,11.03,22.61,6.24,5.06,14.28,6.66,22.01,4.6,4.21-1.13,8.35-2.74,12.42-4.3,3.82-1.46,7.6-3.04,11.21-4.97s6.92-4.14,9.91-6.83,5.48-6.23,8.1-9.49c1.3-1.61,2.7-3.13,4.31-4.45l-2.36-1.82c-2.01,3.81-4.01,7.61-6.02,11.42-1.75,3.31-3.51,6.63-5.69,9.67-4.51,6.3-11.06,9.91-18.21,12.51s-15.54,5.81-23.51,4.6c-7.41-1.13-14.21-5.18-20.22-9.48-5.63-4.02-10.82-8.91-14.53-14.79s-6.8-13.77-4.19-20.61c1.1-2.88,3.21-5.44,5.79-7.12,1.51-.99,7.52-4.06,7.62-.38.05,1.76-1.43,3.09-2.6,4.22-1.31,1.26-2.54,2.58-3.52,4.13-1.9,2.99-2.73,6.55-1.87,10.03s3.16,6.4,5.62,8.88,5.41,4.9,8.37,7c6.01,4.27,12.75,7.55,19.82,9.67,1.72.52,3.46.96,5.22,1.34,1.88.41,2.69-2.49.8-2.89-7.66-1.65-14.96-4.63-21.57-8.85-3.33-2.13-6.46-4.55-9.34-7.25-2.68-2.52-5.46-5.51-6.14-9.26s1.49-7.48,4.15-10.08c2.4-2.35,5.33-5.5,3.58-9.12s-6.35-2.57-9.31-1.27-5.66,3.63-7.54,6.37c-4.55,6.64-3.2,14.88-.1,21.83s7.89,12.37,13.44,17.05c5.87,4.95,12.63,9.38,19.89,11.98,3.93,1.41,8.12,2.12,12.3,1.81,4.39-.32,8.62-1.55,12.79-2.9,7.44-2.41,15.14-5.05,21.05-10.38,6.11-5.5,9.57-13.41,13.34-20.55,1.06-2.02,2.13-4.03,3.19-6.05.83-1.57-1.06-2.87-2.36-1.82-3.19,2.6-5.46,6.03-8.01,9.22s-5.24,5.69-8.44,7.89c-6.47,4.46-13.89,7.25-21.25,9.86-4.07,1.45-8.24,3.1-12.62,3.14-3.54.03-7.07-.88-10.18-2.57s-5.98-4.28-7.87-7.43c-2.2-3.66-3.32-7.84-4.46-11.92-1.31-4.68-2.63-9.37-3.94-14.05-.61-2.17-1.25-4.34-1.62-6.56-.12-.75-.48-2.11,0-2.8s1.79-.65,2.52-.67c3.71-.09,8,1.02,9.73,4.67.9,1.91.48,3.91-.09,5.85-.63,2.15-1.25,4.27-1.58,6.5-1.18,8.04.14,17.44,5.07,24.13,2.35,3.17,5.58,5.29,9.47,6.04,4.14.8,8.41.33,12.52-.42,4.51-.82,8.91-2.13,13.29-3.45s8.53-2.53,12.3-4.85c6.54-4.03,10.7-10.65,15.11-16.73,1.11-1.53,2.26-3.04,3.49-4.49s-.87-3.6-2.12-2.12h0Z" style="stroke-width: 0px;"/>
  </g>
  <g>
    <path d="m764.98,67.54c-38.02-1.21-76.04-2.43-114.06-3.64-.8.49,1.15,1.14,1.17.21s-1.13-1.38-2.05-1.54c-19.59-3.56-39.64.57-59.44,2.66s-41.24,1.69-57.71-9.5c-2.2-1.49-4.37-3.21-6.97-3.77-5.72-1.24-10.83,3.31-15.88,6.28-15.23,8.95-38.05,6.82-54.92,5.52-2-.15-4.07-.35-5.84-1.31-2.2-1.19-3.65-3.37-5-5.47-4.14-6.4-8.41-13.19-8.85-20.8-.15-2.55-.2-5.72-2.51-6.81-1.56-.73-3.51.02-4.61,1.35s-1.5,3.1-1.69,4.81c-.76,7.09,1.88,14.46,6.96,19.47,2.8,2.76,6.47,5.12,7.4,8.93-5.72.74-11.53.81-17.27.2-3.47-.37-6.97-1-10.04-2.66-2.74-1.48-4.99-3.71-7.2-5.9-4.38-4.35-8.84-8.81-11.53-14.36-2.9-5.98-3.53-12.82-3.22-19.45.12-2.61.2-5.67-1.84-7.3-1.63-1.31-4.13-1.08-5.85.1s-2.77,3.13-3.43,5.11c-3.21,9.78,2.11,20.24,8.28,28.48,3.48,4.65,7.28,9.05,11.38,13.16-28.23,5.03-57.15-.56-85.83-.84-51.48-.49-103.22,2.16-154.71,3.36-12.19.28-24.41.56-36.56-.47-4.23-.36-8.73-.83-12.49,1.14-2.35,2.23-1.75,6.73,1.1,8.27,1.59.86,3.49.83,5.3.78,24.5-.69,49-1.38,73.5-2.06,10.46-.29,20.87.86,31.44.87,12.4.01,24.8.19,37.2.54,2.7.08,5.67.27,7.6,2.16-12.47,4.94-23.13,14.31-29.62,26.04-1.81,3.27-3.81,6.88-4.28,10.55-.54,4.25-.52,8.41-1.41,12.65-1.76,8.39-4.65,16.61-5,25.25-.4,9.66,2.42,19.13,5.22,28.38.79,2.61,1.58,5.22,2.36,7.84,1.27,4.2,2.57,8.48,5.09,12.08,1.96,2.79,4.57,5.06,7.33,7.06,4.21,3.05,8.8,5.54,13.37,8.02,2.61,1.42,5.24,2.84,8.05,3.8,3.62,1.24,7.46,1.67,11.26,2.1,15.49,1.74,31.19,3.48,46.6,1.18,3.43-.51,6.9-1.25,9.92-2.97,5.16-2.95,8.32-8.35,12.16-12.88,5.39-6.36,12.42-11.27,17.35-17.99,9.2-12.53,11.52-30.46,10.4-45.67-.67-9.1-3.78-18.35-10.32-24.72-6.93-6.74-16.72-9.47-26.11-11.76-4.29-1.04-8.68-2.05-13.08-1.64-4.85.46-9.42,2.64-13.34,5.54-4.63,3.42-8.5,7.87-11.24,12.93-3.68,6.79-5.3,14.88-3.42,22.37,1.88,7.49,7.56,14.16,15,16.23s16.29-1.16,19.85-8.01c-6.8,4.21-16.5,2.91-21.94-2.95s-6.03-15.63-1.32-22.1c1.6-2.19,3.69-3.99,5.99-5.44,7.08-4.46,16.21-5.48,24.09-2.7,7.89,2.78,14.36,9.31,17.07,17.22,2.94,8.56,1.5,18.17-2.23,26.41s-9.58,15.34-15.67,22.03c-4.34,4.76-8.99,9.49-14.86,12.13-5.63,2.53-11.97,2.95-18.14,3.06-10.86.19-21.89-.51-32.17-4.04s-19.79-10.17-25.06-19.67c-1.4-4.56-2.79-9.12-4.19-13.67-4.26-13.89-8.54-28.73-4.61-42.72,4.81-17.14,20.55-28.54,35.26-38.56,4.01-2.73,8.11-5.51,12.77-6.85,6.89-1.98,14.23-.64,21.35.18,13.02,1.51,26.24,1.24,39.18-.79,9.68-1.52,19.33-4.03,29.12-3.6,8.02.36,15.81,2.68,23.75,3.86,22,3.26,44.41-2.35,66.59-.83-12.33,5.16-16.52,20.69-16.01,34.04.22,5.66,1.04,11.43,3.64,16.47s7.23,9.27,12.82,10.24c9.78,1.7,19.38-9.15,16.49-18.65-.33,5.4-8.49,7.1-12.58,3.57s-4.83-9.56-4.71-14.96c.13-5.64.88-11.27,2.25-16.75.64-2.58,1.48-5.23,3.36-7.11,2.6-2.59,6.56-3.11,10.21-3.49,8.23-.86,16.62-1.71,24.7.04,8.08,1.75,15.95,6.57,19.22,14.17,1.38-4.61,2.84-9.38,6.07-12.95,5.68-6.28,14.54-3.2,22-3.41,10.1-.28,20.2-.53,30.31-.67,20.2-.28,40.41-.11,60.57,1.17,10.16.65,20.32,1.57,30.49,1.25,9.21-.29,18.36-1.61,27.48-2.92,11.62-1.67,23.26-3.35,34.75-5.76,5.27-1.11,10.62-2.38,15.97-1.78,5.04.56,10.26,2.74,14.99.91" style="stroke-width: 0px;"/>
    <path d="m764.98,66.04c-20.1-.64-40.21-1.28-60.31-1.92l-30.15-.96-14.42-.46c-2.62-.08-5.24-.22-7.87-.25-1.29-.01-2.07-.16-2.79,1-.35.57-.22,1.35.23,1.82,1.68,1.72,4.71.29,3.68-2.16-.51-1.21-1.73-1.67-2.91-1.98-2.71-.72-5.77-.88-8.55-1.11-12.48-1.03-24.98.48-37.35,2.04-21.5,2.71-45.33,5.95-65.43-4.38-4.11-2.11-7.82-5.81-12.31-7.02s-8.48.67-12.12,2.89c-4.54,2.76-8.71,5.48-13.84,7.06s-9.96,2.25-15.04,2.6c-9.92.68-19.87-.09-29.77-.87-2.91-.23-5.7-.47-7.88-2.64-2.06-2.04-3.54-4.9-5.04-7.36-3.14-5.14-5.78-10.49-6.2-16.59-.24-3.5-1.03-8.4-5.64-8.15s-6.11,5.57-6.26,9.45c-.2,5.16,1.27,10.42,4.07,14.76s8.87,7.37,10.45,12.52l1.45-1.9c-5.53.67-11.1.81-16.65.26-6.32-.63-11.11-2.64-15.68-7.08-3.64-3.54-7.4-7.16-10.24-11.4-3.2-4.79-4.76-10.26-5.14-15.98-.26-3.93.88-8.75-.68-12.49-1.37-3.27-4.98-4.43-8.17-3.07-7.9,3.36-6.89,15.73-4.63,22.22,3.68,10.56,11.68,19.65,19.42,27.49l.66-2.51c-15.47,2.67-31.18,2.25-46.78,1.25-15.3-.98-30.51-2.12-45.85-2.19-31.7-.13-63.4.85-95.08,1.87-15.73.5-31.46,1.02-47.19,1.41-7.84.2-15.69.42-23.53.39s-15.02-.81-22.55-1.03c-4.33-.12-10.24.28-11.06,5.5-.72,4.58,2.73,7.71,7.06,8,7.83.52,16-.38,23.84-.6s15.75-.44,23.63-.66c8.97-.25,17.94-.52,26.91-.76,8.41-.22,16.77.34,25.17.67s17.03.18,25.55.3c4.49.06,8.98.15,13.47.26,3.72.09,9.25-.69,12.31,1.87l.66-2.51c-14.9,6.05-27.88,18.11-33.76,33.28-1.69,4.36-1.5,9.03-2.05,13.61-.63,5.2-2.22,10.25-3.43,15.34-2.34,9.81-2.73,19.18-.57,29.07,2.01,9.17,4.68,18.78,8.11,27.53,3.23,8.23,9.66,13.29,17.07,17.69,8.06,4.78,15.73,8.78,25.12,9.94,9.96,1.23,19.99,2.32,30.03,2.52,8.81.17,19.19.3,27.46-3.24s12.25-12.13,18.25-18.1c5.95-5.92,12.42-11.18,16.64-18.58s6.25-15.09,7.32-23.14c2.05-15.38,1.35-34.31-10.99-45.5-5.86-5.32-13.45-8.1-20.97-10.15-8.5-2.31-17.29-4.69-25.79-1.14-16.18,6.76-28.27,27.73-20.86,44.76,3.08,7.06,9.51,12.93,17.33,13.91s15.2-2.56,18.92-9.21c.73-1.3-.74-2.81-2.05-2.05-7.07,4.09-16.98,2.47-21.58-4.59-4.64-7.12-2.85-16.5,3.64-21.77,14.19-11.52,36.34-4.07,41.49,13.16,5.53,18.5-8.13,35.78-20.06,48.27-2.87,3.01-5.93,5.9-9.52,8.04-4.4,2.62-9.36,3.69-14.41,4.09-9.33.73-19.07.45-28.27-1.3-8.58-1.64-16.96-4.82-23.85-10.29-3.07-2.43-5.84-5.3-8.03-8.55-2.81-4.16-3.79-9.9-5.25-14.67-5.39-17.61-10.78-36.74-.34-53.61,4.17-6.74,10-12.3,16.14-17.23,6.36-5.11,13.24-10.26,20.4-14.2,8.98-4.94,18.32-3.13,28-2.1s19.44,1.1,29.12.18c10.28-.98,20.32-3.71,30.61-4.54,11.09-.89,21.44,2.45,32.31,3.87,21.76,2.85,43.55-2.37,65.35-1.01l-.76-2.8c-13.48,5.97-17.34,22.47-16.72,35.9.38,8.29,2.25,17.16,8.63,22.98,5.07,4.63,12.08,6.3,18.33,3.05,6.78-3.52,10.89-11.46,8.91-18.94-.47-1.76-2.75-1.18-2.95.4-.47,3.67-5.31,4.58-8.24,3.5-4.29-1.59-5.63-6.95-5.96-11.01-.39-4.73.11-9.64.88-14.31s1.45-11.06,5.87-13.59c4.02-2.3,9.8-2.13,14.3-2.48,5.2-.41,10.49-.58,15.66.29,8.42,1.41,16.47,5.82,20.15,13.82.57,1.23,2.4.78,2.74-.36,2.17-7.22,4.91-15.13,13.57-15.78,3.12-.24,6.26.23,9.38.42,3.85.24,7.72-.01,11.57-.11,17.35-.45,34.7-.74,52.06-.47s34.14,1.83,51.24,2.4,32.92-2.11,49.26-4.57c9.13-1.38,18.16-3.08,27.2-4.89,5.11-1.03,9.87-1.4,15.02-.44,4.17.78,8.12,1.67,12.28.33,1.83-.59,1.05-3.49-.8-2.89-4.41,1.42-8.63-.09-13.03-.76-3.97-.61-7.89-.28-11.82.39-8.66,1.49-17.23,3.43-25.92,4.79-17.27,2.69-34.65,5.61-52.19,5.03s-35.83-2.21-53.82-2.43-35.63.13-53.43.61c-4.16.11-8.19-.1-12.34-.36-3.15-.2-6.43-.23-9.44.85-7.16,2.55-9.71,10.47-11.69,17.08l2.74-.36c-3.48-7.58-10.81-12.45-18.72-14.52-4.98-1.3-10.21-1.55-15.33-1.35s-10.54.48-15.59,1.54c-9.85,2.07-11.23,11.77-12.31,20.39-.95,7.61-2.02,19.06,5.12,24.29,5.09,3.73,13.72,1.73,14.58-5.06l-2.95.4c2.05,7.75-4.35,16.59-12.47,16.92-9.66.4-15.24-9.69-16.77-17.86-2.62-13.95-.09-33.8,14.5-40.26,1.47-.65.58-2.71-.76-2.8-22.69-1.41-45.49,4.39-68.07.59-10.81-1.82-20.96-4.45-32.02-3.21s-22,4.03-33.24,4.69-21.99-.56-33.09-1.62c-5.03-.48-10.21-.52-15.05,1.12-4.39,1.48-8.27,4.08-12.07,6.66-14.01,9.54-29.35,20.37-35.19,37.07-3.32,9.48-2.67,19.69-.63,29.37,1.13,5.39,2.71,10.68,4.32,15.95.82,2.68,1.64,5.36,2.46,8.04.76,2.47,1.27,5.21,2.56,7.46,9.43,16.39,29.43,22.38,47.13,23.4,9.68.55,20.75,1.02,29.78-3.08,8.47-3.85,14.97-11.74,20.75-18.78,11.28-13.75,20.63-34.17,9.05-50.68-9.8-13.97-30.88-17.21-43.64-5.2-5.61,5.28-7.43,13.55-4.76,20.77s9.21,11.48,16.61,11.93c3.83.23,7.55-.72,10.86-2.63l-2.05-2.05c-3.5,6.27-11.26,9.24-18.15,7.32s-11.78-7.74-13.71-14.29c-4.58-15.58,7.16-34.35,22.33-39,7.98-2.44,17.03.56,24.74,2.91,7.16,2.17,14.22,5.32,19.17,11.14,9.81,11.53,9.62,29.51,7.11,43.62-1.28,7.2-3.58,14.3-7.5,20.51s-10.15,11.23-15.51,16.61-8.77,12.58-15.19,16.24c-7.39,4.21-17.87,3.92-26.12,3.86s-17.27-.91-25.87-1.86c-4.15-.46-8.38-.76-12.44-1.82s-7.78-3.14-11.47-5.16c-7.2-3.92-15.54-8.16-19.75-15.54-3.92-6.87-5.59-15.61-7.76-23.16-2.84-9.93-4.56-19.77-2.65-30.04.86-4.63,2.14-9.17,3.24-13.74s1.57-8.89,1.96-13.47c.77-8.99,6.28-17.39,12.3-23.91s12.91-11.19,20.82-14.41c.94-.38,1.62-1.7.66-2.51-4.21-3.53-10.6-2.67-15.71-2.78-7.48-.17-14.97-.28-22.45-.33-14.59-.1-29.15-1.18-43.74-.77s-30.19.85-45.28,1.27c-7.44.21-14.87.43-22.31.63-3.11.08-9.04-.13-7.47-4.91,1.13-3.47,7.78-2.61,10.65-2.38,14.9,1.16,29.78.82,44.7.44s30.59-.89,45.88-1.38c30.16-.97,60.32-1.9,90.5-1.88,16.67.01,33.18,1.08,49.8,2.16s32.25,1.44,48.21-1.32c1.15-.2,1.39-1.77.66-2.51-8.17-8.28-17.57-18.55-19.8-30.37-.54-2.88-.56-5.91.21-8.76.47-1.72,1.16-3.63,2.54-4.85,2.13-1.87,5.04-1.46,5.79,1.44.62,2.37.05,5.14.08,7.57.03,2.87.28,5.76.82,8.58,2.05,10.55,9.59,18.76,17.44,25.65,8.66,7.61,21.75,7.22,32.56,5.92.92-.11,1.76-.87,1.45-1.9-1.1-3.6-3.74-5.89-6.44-8.34-3.59-3.26-6.19-7.22-7.35-11.98-.53-2.17-.73-4.43-.59-6.67.08-1.34.25-3.05.99-4.22.94-1.5,1.34-1.43,2.89-.76,1.86.8,1.72.9,1.91,2.85.41,4.17.98,7.91,2.65,11.81,1.91,4.47,4.55,8.69,7.29,12.69,2.14,3.13,4.63,5.37,8.45,6.01,8.17,1.38,16.98,1.51,25.25,1.52s17.06-.62,25.11-3.27c3.91-1.29,7.46-3.12,10.91-5.34,4.34-2.79,9.22-6.22,14.45-3.56,4,2.04,7.44,4.97,11.55,6.88s8.05,3.23,12.26,4.23c8.66,2.05,17.64,2.52,26.51,2.21,11.58-.41,23.04-2.27,34.54-3.57,6.11-.69,12.23-1.25,18.38-1.36,3.16-.06,6.31,0,9.46.22,1.47.1,2.94.23,4.4.41.91.11,1.83.24,2.74.38.24.04,5.13.57,4.03-.56l.23,1.82.19-.3-1.3.74c38.02,1.21,76.04,2.43,114.06,3.64,1.93.06,1.93-2.94,0-3h0Z" style="stroke-width: 0px;"/>
  </g>
  <path d="m106.79,64.26c-2.48-.01-4.94-.18-7.4-.46.7.08-.07,0-.18-.03-.31-.05-.61-.09-.92-.14-.61-.1-1.22-.21-1.82-.32-1.21-.23-2.42-.51-3.61-.81-2.39-.61-4.74-1.37-7.03-2.27-.29-.11-.57-.23-.86-.34.59.24-.12-.05-.2-.09-.52-.23-1.04-.47-1.56-.71-1.03-.49-2.03-1.03-3-1.64-.48-.3-.95-.62-1.4-.95.59.43.02,0-.08-.08-.21-.19-.43-.37-.63-.56-.41-.39-.8-.79-1.18-1.22-.18-.21-.37-.43-.54-.65.28.37.12.15-.05-.1-.62-.94-1.2-1.89-1.71-2.9-.25-.5-.49-1.02-.72-1.53-.06-.13-.32-.8-.04-.09-.13-.33-.26-.65-.39-.98-.88-2.28-1.66-4.61-2.29-6.97-.3-1.12-.57-2.25-.8-3.39-.12-.61-.22-1.22-.33-1.83-.02-.11-.12-.88-.03-.18-.05-.38-.09-.77-.13-1.15-.11-1.15-.17-2.31-.17-3.46,0-.48.01-.97.04-1.45.01-.22.04-.44.05-.67.07-.87-.13.59,0,.03.18-.83.37-1.63.61-2.44s-.08.07-.09.16c.02-.15.21-.44.29-.59.1-.19.21-.38.32-.56.09-.15.67-.78.2-.32-.63.61.85-.99.3-.32-.3.37-.13.08.05-.03s.37-.22.56-.33c.66-.4.03,0-.14.05.21-.05.47-.13.68-.19.63-.2-.04-.12-.17.02.12-.12.71.01.86,0,.63-.03-.77-.21-.17-.02.22.07.45.1.68.17.17.05.33.12.5.16-.8-.21-.35-.17-.1-.03.43.23.84.47,1.25.73.69.44.1.07-.03-.04.23.2.47.4.69.62.36.34.67.71,1,1.08s-.11-.13-.14-.18c.12.21.28.4.4.6.27.43.49.87.72,1.32.39.79.13.29.06.11.13.33.25.67.37,1.01.75,2.17,1.22,4.42,1.82,6.63,1.31,4.81,3.61,8.96,6.92,12.67s7.65,6.97,11.74,10.09,8.76,6.19,14.04,7.1c2.31.4,4.96-.61,5.54-3.14.5-2.18-.66-5.11-3.14-5.54-1.16-.2-2.29-.49-3.39-.89-.11-.04-.91-.36-.42-.15s-.3-.14-.4-.19c-.62-.29-1.23-.62-1.83-.96-2.11-1.2-4.08-2.65-6.01-4.12-.22-.17-.44-.34-.66-.51.15.11.62.48-.06-.05-.43-.34-.86-.67-1.29-1.01-.97-.76-1.94-1.54-2.88-2.34-1.81-1.54-3.56-3.16-5.13-4.96-.18-.2-.35-.41-.52-.61-.08-.09-.6-.75-.27-.33s-.18-.25-.25-.34c-.19-.27-.38-.54-.56-.82-.66-1-1.24-2.04-1.73-3.13.36.8-.26-.73-.32-.9-.19-.54-.35-1.09-.51-1.64-.36-1.24-.65-2.5-.97-3.75-.65-2.56-1.44-5.14-2.7-7.47s-3.19-4.29-5.36-5.82c-4.52-3.18-10.7-3.16-14.85.62-3.58,3.26-4.63,8.5-4.57,13.14.07,5.58,1.32,11.14,3.14,16.4,1.74,5.04,3.88,10.25,7.86,13.96,4.51,4.21,10.68,6.61,16.5,8.34s12.3,2.67,18.55,2.71c2.35.01,4.61-2.08,4.5-4.5s-1.98-4.49-4.5-4.5h0Z" style="stroke-width: 0px;"/>
  <g>
    <path d="m152.99,56.42c15.42,2.29,31.07-.98,46.66-1.4,7.83-.21,15.65.3,23.48.46,10.57.21,21.15-.22,31.71-.66,22.41-.92,44.82-1.84,67.24-2.76-12.69-1.53-25.43-3.06-38.21-2.74-5.96.15-11.93.7-17.89.32-5.7-.36-11.3-1.57-16.98-2.12-10.26-1-20.59.15-30.89.3-18.87.28-37.86-2.76-56.55-.13-2.21.31-4.48.73-6.35,1.96s-3.22,3.48-2.77,5.67" style="stroke-width: 0px;"/>
    <path d="m152.59,57.87c10.8,1.56,21.63.58,32.43-.38,5.52-.49,11.04-.94,16.58-1.01s10.76.17,16.14.35c11.13.38,22.25.1,33.38-.35s22.23-.91,33.35-1.37c12.53-.52,25.07-1.03,37.6-1.55,1.98-.08,1.88-2.77,0-3-11.71-1.41-23.45-2.82-35.26-2.78-5.96.02-11.9.59-17.86.48s-11.69-1.24-17.53-1.96c-11.74-1.46-23.51,0-35.27.05s-23.44-1.08-35.17-1.21c-6.46-.07-12.93.17-19.34,1.05-2.8.38-5.69.91-7.94,2.74-2.07,1.68-3.13,4.16-2.7,6.8.31,1.9,3.2,1.09,2.89-.8-.38-2.32,1.84-4.12,3.77-4.83,2.45-.91,5.2-1.1,7.77-1.36,5.57-.56,11.18-.68,16.77-.58,11.24.19,22.46,1.22,33.71,1.2s22.73-1.46,34.06-.22c5.6.61,11.13,1.77,16.76,2.06s11.43-.22,17.14-.37c12.79-.32,25.53,1.21,38.21,2.74v-3c-22.16.91-44.33,1.82-66.49,2.73-10.98.45-21.96.92-32.95.68-5.46-.12-10.92-.4-16.39-.48s-10.91.15-16.35.59c-12.12.96-24.38,2.66-36.51.9-1.89-.27-2.7,2.62-.8,2.89h0Z" style="stroke-width: 0px;"/>
  </g>
  <path d="m151.65,49.08c-1.25-.1.78.3-.41-.06-.38-.12-.78-.23-1.16-.33-1.19-.31.67.4-.42-.16-.37-.19-.73-.37-1.09-.57-1.51-.85-2.91-1.88-4.3-2.92-2.77-2.06-5.11-3.78-7.82-6.53-.57-.58-1.12-1.17-1.65-1.79-.29-.33-.56-.68-.85-1.01-.92-1.09.47.67-.38-.48-1.13-1.54-2.19-3.13-3.17-4.78-.38-.65-.76-1.3-1.11-1.96-.22-.41-.42-.83-.64-1.24-.63-1.22.16.67-.27-.63-.15-.44-.3-.88-.41-1.33,0-.02-.29-1.51-.17-.62-.15-1.07-.1-2.17-.03-3.24.06-.92.04-.4,0-.19.07-.46.16-.92.26-1.37.18-.8.39-1.58.66-2.35.05-.16.56-1.28.11-.34.16-.34.33-.68.52-1.01s.39-.64.61-.94c-.61.85.37-.32.52-.47.73-.73-.45.14.15-.09.19-.07.99-.53.21-.19.37-.16.78-.28,1.18-.38.11-.03,1.45-.27.44-.13.84-.11,1.68-.06,2.53-.11l.44.02c-.46-.09-.42-.08.11.03-.37-.21-.34-.19.07.05-.4-.33-.42-.31-.05.04l-.22-.31c.11.16.22.32.32.49.17.28.32.56.47.85.04.08.57,1.34.22.45.15.39.29.78.42,1.17.56,1.72.9,3.5,1.17,5.29-.15-1.01.05.38.06.48.03.28.06.56.1.84.09.84.18,1.69.26,2.53.22,2.08.45,4.17.81,6.23.69,3.96,2.13,7.79,4.44,11.1s5.15,6.22,8.05,9.05c1.69,1.65,4.71,1.81,6.36,0s1.8-4.61,0-6.36c-1.36-1.33-2.73-2.66-4.02-4.06-.62-.67-1.22-1.37-1.81-2.07-.52-.63.15.24-.33-.42-.33-.45-.65-.91-.96-1.37-.49-.76-.95-1.54-1.35-2.35-.1-.2-.58-1.39-.31-.65-.16-.46-.34-.92-.48-1.38-.27-.86-.49-1.74-.68-2.63-.09-.41-.16-.82-.23-1.24-.05-.28-.09-.55-.14-.83-.06-.38-.08-.53-.02-.06-.54-4.02-.7-8.11-1.59-12.08s-2.68-9.04-6.67-10.84c-2.25-1.01-4.74-1.11-7.17-.82s-4.7.82-6.65,2.22c-3.53,2.55-5.47,6.51-6.31,10.71-1,5-.49,9.71,1.82,14.28,1.9,3.77,4.34,7.32,7.06,10.54,3.08,3.64,6.86,6.54,10.66,9.38s7.8,5.56,12.84,5.94c2.35.18,4.6-2.2,4.5-4.5-.12-2.59-1.98-4.31-4.5-4.5h0Z" style="stroke-width: 0px;"/>
</svg>